<?xml version="1.0" encoding="UTF-8"?>
<svg width="42px" height="61px" viewBox="0 0 42 61" version="1.1" xmlns="http://www.w3.org/2000/svg" xmlns:xlink="http://www.w3.org/1999/xlink">
    <!-- Generator: Sketch 45.1 (43504) - http://www.bohemiancoding.com/sketch -->
    <title>Rectangle</title>
    <desc>Created with Sketch.</desc>
    <defs></defs>
    <g id="Page-1" stroke="none" stroke-width="1" fill="none" fill-rule="evenodd">
        <path d="M4,3.63217248 L37.6642702,3.63217248 L37.6642702,3.63217248 C38.2165549,3.63217248 38.6642702,4.07988773 38.6642702,4.63217248 L38.6642702,56.9966983 L38.6642702,56.9966983 C38.6642702,57.5489831 38.2165549,57.9966983 37.6642702,57.9966983 C37.3814248,57.9966983 37.1118085,57.8769186 36.9222084,57.6670298 L21.5641808,40.6655821 L21.5641808,40.6655821 C21.1939669,40.2557526 20.5616169,40.2236379 20.1517875,40.5938517 C20.126535,40.6166633 20.1024633,40.640749 20.0796665,40.6660148 L4.7424525,57.664335 L4.7424525,57.664335 C4.37247765,58.0743802 3.74014648,58.1068636 3.33010128,57.7368888 C3.11995122,57.5472749 3,57.2774848 3,56.9944363 L3,4.63217248 L3,4.63217248 C3,4.07988773 3.44771525,3.63217248 4,3.63217248 Z" id="Rectangle" stroke="#000000" stroke-width="6" fill="#DAB0B0"></path>
    </g>
</svg>